<svg id="Layer_1" data-name="Layer 1" xmlns="http://www.w3.org/2000/svg" viewBox="0 0 492 408.65"><defs><style>.cls-1{fill:#fff;}</style></defs><title>arrow</title><path class="cls-1" d="M465.11,165.91H135.89L239.38,62.19a27.17,27.17,0,0,0,0-38.21L223.28,7.86a26.94,26.94,0,0,0-38,0L7.84,185.24a27.14,27.14,0,0,0,0,38.16L185.26,400.81a27,27,0,0,0,38,0l16.1-16.11a26.65,26.65,0,0,0,7.85-19A25.83,25.83,0,0,0,239.38,347L134.72,242.73h330c14.83,0,27.29-12.78,27.29-27.6V192.34c0-14.82-12.83-26.6-27.66-26.6"/></svg>