<?xml version="1.0" encoding="utf-8"?>
<!-- Generator: Adobe Illustrator 22.0.1, SVG Export Plug-In . SVG Version: 6.00 Build 0)  -->
<svg version="1.1" id="Laag_1" xmlns="http://www.w3.org/2000/svg" xmlns:xlink="http://www.w3.org/1999/xlink" x="0px" y="0px"
	 viewBox="0 0 298.6 304.8" style="enable-background:new 0 0 298.6 304.8;" xml:space="preserve">
<style type="text/css">
	.st0{fill:none;}
	.st1{fill:#FFFFFF;stroke:#000000;stroke-miterlimit:10;}
	.st2{fill:#FCEF00;}
</style>
<path class="st0" d="M195.4,609.4c1.3,0,2.7,0.1,4.2,0.1C198.2,609.5,196.8,609.5,195.4,609.4z"/>
<path class="st0" d="M190.9,590.6c-0.2,0.1-2.7,1.4-5.6,3.2C187.2,592.8,189,591.8,190.9,590.6z"/>
<path class="st1" d="M190.9,590.6L190.9,590.6L190.9,590.6L190.9,590.6z"/>
<path class="st1" d="M199.6,609.5c0.5,0,1,0,1.6,0C200.7,609.5,200.1,609.5,199.6,609.5L199.6,609.5z"/>
<path class="st2" d="M285.1,264c-1.9-1-3.8-2.1-5.6-3.2l0,0l0,0c-33.6-21.1-52-67.2-52-119.9c0-2.4-0.1-4.7-0.3-7
	c0.1-1.5,0.1-2.9,0.1-4.4c0-37.8-26.8-69.3-62.4-76.5c7.3-5,12-13.3,12-22.8c0-15.3-12.4-27.6-27.6-27.6S121.7,15,121.7,30.2
	c0,9.5,4.8,17.8,12,22.8c-35.6,7.2-62.4,38.7-62.4,76.5c0,1.5,0.1,3,0.1,4.4c-0.2,2.3-0.3,4.6-0.3,7c0,52.7-18.4,98.8-52,119.9l0,0
	l0,0c-1.8,1.1-3.7,2.2-5.6,3.2c-8,5.1-18.7,14.6,10.1,15.6c1.4,0,2.8,0.1,4.2,0.1l0,0c0.5,0,1.1,0,1.6,0c20.9,0.4,40.2,0.4,40.2,0.4
	h57.8l0,0c0,12.1,9.8,22,22,22s22-9.8,22-22l0,0h57.8c0,0,19.3,0.1,40.2-0.4c0.5,0,1,0,1.6,0l0,0c1.4,0,2.8-0.1,4.2-0.1
	C303.8,278.6,293.1,269.1,285.1,264z M132.1,30.2c0-9.5,7.7-17.2,17.2-17.2s17.2,7.7,17.2,17.2s-7.7,17.2-17.2,17.2
	S132.1,39.6,132.1,30.2z"/>
</svg>
