<?xml version="1.0" encoding="utf-8"?>
<!-- Generator: Adobe Illustrator 22.0.1, SVG Export Plug-In . SVG Version: 6.00 Build 0)  -->
<svg version="1.1" xmlns="http://www.w3.org/2000/svg" xmlns:xlink="http://www.w3.org/1999/xlink" x="0px" y="0px"
	 viewBox="0 0 512 512" style="enable-background:new 0 0 512 512;" xml:space="preserve">
<style type="text/css">
	.st0{fill:#FFFFFF;}
</style>
<g id="Capa_1">
	<g>
		<path class="st0" d="M477.7,127.6c-22.9-28.1-53.9-50.3-93.1-66.6S302.5,36.6,256,36.6c-46.5,0-89.3,8.1-128.6,24.4
			s-70.3,38.5-93.1,66.6C11.4,155.7,0,186.3,0,219.4c0,28.6,8.6,55.3,25.9,80.3c17.2,25,40.8,45.9,70.7,62.9
			c-2.1,7.6-4.6,14.9-7.4,21.7c-2.9,6.9-5.4,12.5-7.7,16.9c-2.3,4.4-5.4,9.2-9.3,14.6c-3.9,5.3-6.9,9.1-8.9,11.3
			c-2,2.2-5.3,5.8-9.9,10.9c-4.6,5-7.5,8.3-8.9,9.9c-0.2,0.1-1,0.9-2.3,2.6c-1.3,1.6-2,2.4-2,2.4l-1.7,2.6c-1,1.4-1.4,2.3-1.3,2.7
			c0.1,0.4-0.1,1.3-0.6,2.9c-0.5,1.5-0.4,2.7,0.1,3.4v0.3c0.8,3.2,2.3,5.9,4.6,7.9c2.3,2,4.9,3,7.7,3h1.4
			c12.4-1.5,23.2-3.6,32.6-6.3c49.9-12.8,93.7-35.8,131.4-69.1c14.3,1.5,28.1,2.3,41.4,2.3c46.5,0,89.3-8.1,128.6-24.4
			c39.2-16.3,70.3-38.5,93.1-66.6c22.9-28.1,34.3-58.7,34.3-91.9C512,186.3,500.6,155.7,477.7,127.6z M445.6,292.3
			c-19.9,22.5-46.8,40.3-80.6,53.6c-33.8,13.2-70.1,19.9-109,19.9c-11.6,0-24-0.8-37.1-2.3l-16.3-1.7l-12.3,10.9
			c-23.4,20.6-49.6,36.9-78.6,48.9c8.8-15.4,15.4-31.8,20-49.1l7.7-27.4l-24.9-14.3c-24.8-14.1-44-30.8-57.6-50.2
			c-13.6-19.3-20.4-39.7-20.4-61c0-26.1,10-50.4,29.9-72.9c19.9-22.5,46.8-40.3,80.6-53.6c33.8-13.2,70.1-19.9,109-19.9
			c38.9,0,75.2,6.6,109,19.9c33.8,13.2,60.7,31.1,80.6,53.6c19.9,22.5,29.9,46.8,29.9,72.9S465.5,269.8,445.6,292.3z"/>
	</g>
</g>
<g id="Laag_2">
</g>
</svg>
