<?xml version="1.0" encoding="utf-8"?>
<!-- Generator: Adobe Illustrator 22.0.1, SVG Export Plug-In . SVG Version: 6.00 Build 0)  -->
<svg version="1.1" id="Capa_1" xmlns="http://www.w3.org/2000/svg" xmlns:xlink="http://www.w3.org/1999/xlink" x="0px" y="0px"
	 viewBox="0 0 512 512" style="enable-background:new 0 0 512 512;" xml:space="preserve">
<style type="text/css">
	.st0{fill:#00D66C;}
</style>
<path class="st0" d="M477.7,127.6c-22.9-28.1-53.9-50.3-93.1-66.6C345.3,44.7,302.5,36.6,256,36.6S166.7,44.7,127.4,61
	c-39.2,16.3-70.3,38.5-93.1,66.6C11.4,155.7,0,186.3,0,219.4c0,28.6,8.6,55.3,25.9,80.3c17.2,25,40.8,45.9,70.7,62.9
	c-2.1,7.6-4.6,14.9-7.4,21.7c-2.9,6.9-5.4,12.5-7.7,16.9c-2.3,4.4-5.4,9.2-9.3,14.6c-3.9,5.3-6.9,9.1-8.9,11.3
	c-2,2.2-5.3,5.8-9.9,10.9c-4.6,5-7.5,8.3-8.9,9.9c-0.2,0.1-1,0.9-2.3,2.6c-1.3,1.6-2,2.4-2,2.4l-1.7,2.6c-1,1.4-1.4,2.3-1.3,2.7
	c0.1,0.4-0.1,1.3-0.6,2.9c-0.5,1.5-0.4,2.7,0.1,3.4v0.3c0.8,3.2,2.3,5.9,4.6,7.9s4.9,3,7.7,3h1.4c12.4-1.5,23.2-3.6,32.6-6.3
	c49.9-12.8,93.7-35.8,131.4-69.1c14.3,1.5,28.1,2.3,41.4,2.3c46.5,0,89.3-8.1,128.6-24.4c39.2-16.3,70.3-38.5,93.1-66.6
	c22.9-28.1,34.3-58.7,34.3-91.9C512,186.3,500.6,155.7,477.7,127.6z"/>
</svg>
