<?xml version="1.0" encoding="utf-8"?>
<!-- Generator: Adobe Illustrator 22.0.1, SVG Export Plug-In . SVG Version: 6.00 Build 0)  -->
<svg version="1.1" id="Laag_1" xmlns="http://www.w3.org/2000/svg" xmlns:xlink="http://www.w3.org/1999/xlink" x="0px" y="0px"
	 viewBox="0 0 25 25" style="enable-background:new 0 0 25 25;" xml:space="preserve">
<style type="text/css">
	.st0{fill:#FFFFFF;}
</style>
<path class="st0" d="M8.8,8.8c0-2.3,1.5-3.9,3.7-3.9c2.3,0,4,1.8,3.9,4.1c-0.1,2.8-2.1,5.5-4,5.4C10.5,14.3,8.8,11.7,8.8,8.8z"/>
<path class="st0" d="M5.8,17.5c2.1-1.1,4.1-1.6,5.5,0.8c0.8,1.4,1.8,1.1,2.5-0.1c1.5-2.3,3.4-2,5.4-0.8C16,21.7,9.7,21.8,5.8,17.5z"
	/>
<path class="st0" d="M12.7,0C5.3,0,0,5.1,0,12.4c0,7.1,5.3,12.5,12.3,12.5c7.1,0,12.6-5.3,12.7-12.3C25.1,5.6,19.7,0,12.7,0z
	 M12.4,22.5c-5.7,0-10-4.4-10-10.2c0-5.9,4.3-10,10.3-10c5.6,0,10,4.5,10,10.2C22.6,18.2,18.1,22.5,12.4,22.5z"/>
</svg>
