<?xml version="1.0" encoding="utf-8"?>
<!-- Generator: Adobe Illustrator 22.0.1, SVG Export Plug-In . SVG Version: 6.00 Build 0)  -->
<svg version="1.1" xmlns="http://www.w3.org/2000/svg" xmlns:xlink="http://www.w3.org/1999/xlink" x="0px" y="0px"
	 viewBox="0 0 298.6 304.8" style="enable-background:new 0 0 298.6 304.8;" xml:space="preserve">
<style type="text/css">
	.st0{display:none;}
	.st1{display:inline;fill:none;}
	.st2{display:inline;fill:#FFFFFF;stroke:#000000;stroke-miterlimit:10;}
	.st3{display:inline;fill:#FFFFFF;}
	.st4{fill:#FFFFFF;}
	.st5{display:inline;}
</style>
<g id="Laag_1" class="st0">
	<path class="st1" d="M195.4,609.4c1.3,0,2.7,0.1,4.2,0.1C198.2,609.5,196.8,609.5,195.4,609.4z"/>
	<path class="st1" d="M190.9,590.6c-0.2,0.1-2.7,1.4-5.6,3.2C187.2,592.8,189,591.8,190.9,590.6z"/>
	<path class="st2" d="M190.9,590.6L190.9,590.6L190.9,590.6L190.9,590.6z"/>
	<path class="st2" d="M199.6,609.5c0.5,0,1,0,1.6,0C200.7,609.5,200.1,609.5,199.6,609.5L199.6,609.5z"/>
	<path class="st3" d="M285.1,264c-1.9-1-3.8-2.1-5.6-3.2l0,0l0,0c-33.6-21.1-52-67.2-52-119.9c0-2.4-0.1-4.7-0.3-7
		c0.1-1.5,0.1-2.9,0.1-4.4c0-37.8-26.8-69.3-62.4-76.5c7.3-5,12-13.3,12-22.8c0-15.3-12.4-27.6-27.6-27.6S121.7,15,121.7,30.2
		c0,9.5,4.8,17.8,12,22.8c-35.6,7.2-62.4,38.7-62.4,76.5c0,1.5,0.1,3,0.1,4.4c-0.2,2.3-0.3,4.6-0.3,7c0,52.7-18.4,98.8-52,119.9l0,0
		l0,0c-1.8,1.1-3.7,2.2-5.6,3.2c-8,5.1-18.7,14.6,10.1,15.6c1.4,0,2.8,0.1,4.2,0.1l0,0c0.5,0,1.1,0,1.6,0
		c20.9,0.4,40.2,0.4,40.2,0.4h57.8l0,0c0,12.1,9.8,22,22,22s22-9.8,22-22l0,0h57.8c0,0,19.3,0.1,40.2-0.4c0.5,0,1,0,1.6,0l0,0
		c1.4,0,2.8-0.1,4.2-0.1C303.8,278.6,293.1,269.1,285.1,264z M132.1,30.2c0-9.5,7.7-17.2,17.2-17.2s17.2,7.7,17.2,17.2
		s-7.7,17.2-17.2,17.2S132.1,39.6,132.1,30.2z"/>
</g>
<g id="Laag_2">
	<path class="st4" d="M204.5,25.2c1.7-2.7,3.4-5.2,5.4-7.6c6.7-7.8,14.8-13.5,24.9-16.1c20.2-5.2,42.5,3.7,51.7,24.3
		c2.4,5.4,3.7,11,3.8,16.9c0.2,8.6-0.5,17-2.8,25.4c-2.4,8.9-6.8,16.7-12.7,23.8c-5.5,6.7-11.7,12.6-18.2,18.4
		c-9,8.1-18.3,15.9-27.3,23.9c-8.2,7.2-16.4,14.6-24.3,22.1c-0.3,0.3-0.5,0.6-1,0.2c-13-12.4-26.5-24.2-40.1-35.9
		c-7.2-6.2-14.5-12.6-21.3-19.3c-5.7-5.7-11-11.7-15.1-18.6c-4-6.9-6.6-14.4-7.8-22.3c-1-6.1-1.4-12.2-1.1-18.3
		c0.8-17.3,11.1-32.3,27.2-38.7c7-2.8,14.3-3.7,21.8-3c9.8,1.1,18.3,5.1,25.7,11.6c4,3.6,7.5,7.7,10.3,12.2
		C204,24.5,204.2,24.8,204.5,25.2z"/>
	<path class="st4" d="M182.2,256.5H76.1c-7.1,0-13-5.8-13-13v0c0-7.1,5.8-13,13-13h106.2c7.1,0,13,5.8,13,13v0
		C195.2,250.7,189.4,256.5,182.2,256.5z"/>
	<path class="st4" d="M182.2,202.9H76.1c-7.1,0-13-5.8-13-13v0c0-7.1,5.8-13,13-13h106.2c7.1,0,13,5.8,13,13v0
		C195.2,197,189.4,202.9,182.2,202.9z"/>
	<path class="st4" d="M146.4,149.2H76.1c-7.1,0-13-5.8-13-13v0c0-7.1,5.8-13,13-13h70.3c7.1,0,13,5.8,13,13v0
		C159.4,143.3,153.5,149.2,146.4,149.2z"/>
	<path class="st4" d="M250,170.2c0-7.4-6.1-13.5-13.5-13.5h0c-7.4,0-13.5,6.1-13.5,13.5v108.4H35.3V48.3h60.1c7.1,0,13-5.8,13-13
		s-5.8-13-13-13H21.8h0h-0.5c-7.1,0-13,5.8-13,13c0,0.1,0,0.2,0,0.3c0,0.1,0,0.2,0,0.3V291c0,0.1,0,0.2,0,0.3c0,0.1,0,0.2,0,0.3
		c0,7.1,5.8,13,13,13h0.5h0h214.7h0h0.5c7.1,0,13-5.8,13-13c0-0.1,0-0.2,0-0.3c0-0.1,0-0.2,0-0.3V170.2z"/>
</g>
<g id="Laag_3" class="st0">
	<g class="st5">
		<g>
			<path class="st4" d="M287.7,62.5l-89.9,89.9l89.9,89.9c13.4,13.4,13.4,35.1,0,48.4c-6.7,6.7-15.4,10-24.2,10
				c-8.8,0-17.5-3.3-24.2-10l-89.9-90l-89.9,90c-6.7,6.7-15.5,10-24.2,10c-8.8,0-17.5-3.3-24.2-10c-13.4-13.4-13.4-35.1,0-48.4
				l89.9-89.9L10.9,62.5C-2.5,49.1-2.5,27.4,10.9,14C24.3,0.7,46,0.7,59.3,14l90,89.9L239.3,14c13.4-13.4,35.1-13.4,48.4,0
				C301.1,27.4,301.1,49.1,287.7,62.5L287.7,62.5z M287.7,62.5"/>
		</g>
	</g>
</g>
</svg>
