<svg id="Laag_2" data-name="Laag 2" xmlns="http://www.w3.org/2000/svg" viewBox="0 0 21.38 19.31"><defs><style>.cls-1{fill:#fff;}</style></defs><title>heart-icon-wit-full</title><path class="cls-1" d="M11,19.3h-.5A.72.72,0,0,0,11,19.3Z" transform="translate(0 -0.04)"/><path class="cls-1" d="M18.2.8a5.9,5.9,0,0,0-7,.9c-.5.4-.7.3-1.1,0A5.78,5.78,0,0,0,4.1.4H4C1.9,1.2.4,3.4.1,6.2A4.1,4.1,0,0,0,0,7.3a8,8,0,0,0,1.1,3.5,22.6,22.6,0,0,0,9.2,8.4.93.93,0,0,0,.2.1H11a.93.93,0,0,0,.2-.1,24.57,24.57,0,0,0,7.5-6.1,10.14,10.14,0,0,0,2.6-5.4A7,7,0,0,0,18.2.8Z" transform="translate(0 -0.04)"/></svg>