<?xml version="1.0" encoding="utf-8"?>
<!-- Generator: Adobe Illustrator 22.0.1, SVG Export Plug-In . SVG Version: 6.00 Build 0)  -->
<svg version="1.1" id="Laag_2_1_" xmlns="http://www.w3.org/2000/svg" xmlns:xlink="http://www.w3.org/1999/xlink" x="0px" y="0px"
	 viewBox="0 0 21.4 19.3" style="enable-background:new 0 0 21.4 19.3;" xml:space="preserve">
<style type="text/css">
	.st0{fill:#FFFFFF;}
	.st1{fill:#FF3268;}
</style>
<title>heart-icon</title>
<title>heart-icon</title>
<path class="st0" d="M3.4,2.3C2.8,2.8,2.3,3.4,2,4.2C2.3,3.4,2.8,2.8,3.4,2.3z"/>
<path class="st1" d="M18.2,0.8c-2.3-1.3-5.1-0.9-7,0.9c-0.5,0.4-0.7,0.3-1.1,0c-1.6-1.5-3.9-2.1-6-1.3H4c-2.1,0.8-3.6,3-3.9,5.8
	C0,6.6,0,6.9,0,7.3c0.1,1.3,0.5,2.5,1.1,3.5c2.2,3.6,5.4,6.5,9.2,8.4c0.3,0.2,0.6,0.2,0.9,0c2.9-1.5,5.4-3.6,7.5-6.1
	c1.4-1.5,2.3-3.4,2.6-5.4C21.7,5,20.5,2.3,18.2,0.8z M16.9,11.8c-1.7,2-3.7,3.6-5.9,4.9c-0.2,0.1-0.4,0.1-0.5,0
	c-2.8-1.5-5.2-3.7-6.9-6.4c-0.9-1.2-1.3-2.7-1-4.1c0-0.4,0.1-0.8,0.3-1.2c0.3-1,1.1-1.8,2-2.3c0.8-0.4,1.8-0.5,2.8-0.2
	c0.4,0.1,0.8,0.4,1.2,0.6c0.4,0.3,0.8,0.6,1.2,1c0.5,0.5,0.8,0.5,1.2,0c0.7-0.8,1.6-1.3,2.6-1.6C15.8,2,17.8,3.1,18.5,5
	c0.3,0.7,0.4,1.4,0.4,2.1C18.8,8.8,18.1,10.5,16.9,11.8z"/>
</svg>
