<?xml version="1.0" encoding="utf-8"?>
<!-- Generator: Adobe Illustrator 22.0.1, SVG Export Plug-In . SVG Version: 6.00 Build 0)  -->
<svg version="1.1" id="Laag_1" xmlns="http://www.w3.org/2000/svg" xmlns:xlink="http://www.w3.org/1999/xlink" x="0px" y="0px"
	 viewBox="0 0 60 59.5" style="enable-background:new 0 0 60 59.5;" xml:space="preserve">
<style type="text/css">
	.st0{fill:#FFFFFF;}
	.st1{fill:#00D66C;}
</style>
<path class="st0" d="M59,29.6C59,13.6,46.2,1,30,1C13.8,1,1,13.6,1,29.6c0,15.9,12.8,28.6,29,28.6C46.2,58.1,59,45.5,59,29.6z"/>
<path class="st1" d="M42.8,33.7h-1.6c-1.6,0-2.3,0.9-2.6,2.5c-0.4,3-2.9,5.1-6.1,5.1c-3.7,0-6.1-2.7-6.1-6.6v-9.2c0-0.4,0-0.7-0.1-1
	c0.4,0.2,0.8,0.2,1.2,0.2h8.6c1.6,0,2.6-0.9,2.6-2.5v-0.7c0-1.6-0.9-2.5-2.6-2.5h-4.8v-5.2c0-1.6-0.9-2.5-2.6-2.5h-1.2
	c-1.6,0-2.6,0.9-2.6,2.5v8.4c0,0.4,0,0.7,0.1,1c-0.4-0.2-0.8-0.2-1.2-0.2h-8.6c-1.6,0-2.6,0.9-2.6,2.5v0.7c0,1.6,0.9,2.5,2.6,2.5
	h4.8v5.9c0,7.4,4.8,12.6,12.4,12.6c7,0,11.7-4.4,12.6-11.1C45.4,34.6,44.3,33.7,42.8,33.7L42.8,33.7z"/>
</svg>
