<svg id="Laag_1" data-name="Laag 1" xmlns="http://www.w3.org/2000/svg" viewBox="0 0 58 57.11"><defs><style>.cls-1{fill:#fff;}.cls-2{fill:#00d66c;}</style></defs><title>transavia-logo-rond</title><path class="cls-1" d="M59,29.55A28.58,28.58,0,0,0,30,1a28.56,28.56,0,1,0,0,57.11A28.59,28.59,0,0,0,59,29.55Z" transform="translate(-1 -1)"/><path class="cls-2" d="M42.81,33.74H41.18c-1.63,0-2.32.86-2.56,2.53a5.83,5.83,0,0,1-6,5.1c-3.73,0-6.12-2.69-6.12-6.6V25.6a3.31,3.31,0,0,0-.14-1,3.16,3.16,0,0,0,1.25.24h8.56a2.31,2.31,0,0,0,2.56-2.53v-.74a2.31,2.31,0,0,0-2.56-2.53H31.29V13.9a2.31,2.31,0,0,0-2.56-2.52H27.56A2.31,2.31,0,0,0,25,13.9v8.43a3.31,3.31,0,0,0,.14,1,3.12,3.12,0,0,0-1.25-.23H15.34a2.32,2.32,0,0,0-2.57,2.52v.74a2.32,2.32,0,0,0,2.57,2.53h4.83v5.9c0,7.4,4.83,12.56,12.4,12.56,7,0,11.7-4.41,12.57-11.06a2.1,2.1,0,0,0-2.33-2.53Z" transform="translate(-1 -1)"/></svg>