<svg id="Laag_3" data-name="Laag 3" xmlns="http://www.w3.org/2000/svg" viewBox="0 0 21.41 15.05"><defs><style>.cls-1{fill:#fff;}</style></defs><title>vliegtuig-icoon</title><path class="cls-1" d="M11.2,10l-1,.47a14.71,14.71,0,0,1-2.63,1A15.9,15.9,0,0,1,5.34,12,5.7,5.7,0,0,1,4,12a1,1,0,0,1-.66-.28A35,35,0,0,1,.81,9.23C.56,9,.31,8.67.07,8.39L0,8.32l.26-.11c.22-.09.42-.19.63-.29a.17.17,0,0,1,.14,0L4.84,9.15a.18.18,0,0,0,.16,0l12.42-6a4,4,0,0,1,1.18-.31,5.09,5.09,0,0,1,1.17,0,2.71,2.71,0,0,1,1.17.36.91.91,0,0,1,.46,1,1.35,1.35,0,0,1-.27.61,3.19,3.19,0,0,1-1.31,1l-4,1.92a.2.2,0,0,0-.12.13l-3.14,8.73a1.43,1.43,0,0,1-.33.47s0,0-.07,0l-1.46.69-.11.05a.09.09,0,0,1-.15,0,.31.31,0,0,1,0-.21c.06-.53.11-1.06.17-1.59l.15-1.45.15-1.45L11,11.7l.18-1.64Z" transform="translate(0 -2.85)"/><path class="cls-1" d="M11.51,4.7l-1.17.54L8,6.36a.1.1,0,0,1-.13,0L4.44,4.16c-.15-.09-.18-.22-.08-.34l.08,0L5.92,3A.09.09,0,0,1,6,3a1.85,1.85,0,0,1,.62,0l4.83,1.65Z" transform="translate(0 -2.85)"/></svg>